<?xml version="1.0" encoding="iso-8859-1"?>
<!-- Generator: Adobe Illustrator 17.0.0, SVG Export Plug-In . SVG Version: 6.00 Build 0)  -->
<!DOCTYPE svg PUBLIC "-//W3C//DTD SVG 1.1//EN" "http://www.w3.org/Graphics/SVG/1.1/DTD/svg11.dtd">
<svg version="1.1" id="&#x421;&#x43B;&#x43E;&#x439;_1"
	 xmlns="http://www.w3.org/2000/svg" xmlns:xlink="http://www.w3.org/1999/xlink" x="0px" y="0px" width="36.961px" height="31px"
	 viewBox="0 0 36.961 31" style="enable-background:new 0 0 36.961 31;" xml:space="preserve">
<path style="fill:#FFFFFF;" d="M35.7,5.875l-4.082-4.503C30.813,0.485,29.668-0.015,28.474,0c-1.145,0.016-2.227,0.5-3.004,1.34
	c-0.922-0.328-1.977-0.484-2.625-0.418c-1.317,0.137-4.11,1.5-3.973,2.817c0.133,1.314,3.145,2.09,4.46,1.95
	c0.235-0.023,0.517-0.085,0.82-0.18l-1.096,1.13c-0.39-0.11-0.813-0.152-1.246-0.117c-0.536,0.04-1.024,0.2-1.457,0.434
	c-0.782-1.055-2.125-1.715-3.622-1.602c-0.794,0.06-1.517,0.332-2.115,0.746c-0.75-1.854-2.398-3.09-4.218-2.952
	C8.14,3.315,6.45,5.534,6.51,8.174C5.013,8.6,3.86,9.724,3.458,11.108l-2.055,0.586c-1.027,0.296-1.62,1.366-1.328,2.39
	c0.242,0.85,1.016,1.405,1.856,1.405c0.18,0,0.357-0.03,0.537-0.08l0.574-0.164c-0.47,0.71-0.72,1.593-0.647,2.54
	c0.156,2.108,1.847,3.71,3.804,3.63l-0.773,1.353c-0.207,0.36-0.258,0.784-0.15,1.18L6.77,29.29c0.19,0.684,0.812,1.133,1.488,1.133
	c0.137,0,0.277-0.015,0.414-0.054c0.823-0.23,1.304-1.08,1.077-1.902l-1.32-4.723l0.883-1.547c0.738,0.695,1.863,1.093,3.093,1.004
	c0.64-0.05,1.227-0.24,1.74-0.508c0.745,0.676,1.772,1.07,2.885,0.984c1.06-0.078,1.973-0.566,2.602-1.28
	c0.035,0.034,0.066,0.073,0.1,0.104v6.38c0,0.85,0.685,1.542,1.537,1.542c0.85,0,1.53-0.69,1.53-1.543v-5.27
	c2.083-0.166,3.645-1.904,3.497-3.893c-0.02-0.243-0.063-0.48-0.13-0.708c1.392-0.39,2.357-1.614,2.255-2.98
	c-0.068-0.86-0.55-1.59-1.244-2.068c0.14-0.363,0.203-0.754,0.176-1.156c-0.008-0.11-0.024-0.216-0.047-0.32l1.445-3.232l2.33,1.485
	c0.9,0.577,2.058,0.57,2.952-0.02l1.153-0.76c0.66-0.436,1.097-1.14,1.2-1.924c0.1-0.786-0.154-1.58-0.685-2.165L35.7,5.875z
	 M29.98,4.602c-0.495,0.04-0.928-0.336-0.963-0.832c-0.04-0.5,0.332-0.93,0.832-0.97c0.494-0.034,0.927,0.337,0.966,0.833
	C30.851,4.133,30.479,4.563,29.98,4.602L29.98,4.602z"/>
</svg>
